# AST/ASF file generated using VICON BodyLanguage
# -----------------------------------------------
:version 1.10
:name VICON
:units
  mass 1.0
  length 0.45
  angle deg
:documentation
   .ast/.asf automatically generated from VICON data using
   VICON BodyBuilder and BodyLanguage model FoxedUp or BRILLIANT.MOD
:root
   order TX TY TZ RX RY RZ
   axis XYZ
   position 0 0 0  
   orientation 0 0 0 
:bonedata
  begin
     id 1 
     name lhipjoint
     direction 0.567725 -0.736092 0.368589 
     length 2.42353 
     axis 0 0 0  XYZ
  end
  begin
     id 2 
     name lfemur
     direction 0.34202 -0.939693 0  
     length 7.24894  
     axis 0 0 20  XYZ
    dof rx ry rz
    limits (-160.0 20.0)
           (-70.0 70.0)
           (-60.0 70.0)
  end
  begin
     id 3 
     name ltibia
     direction 0.34202 -0.939693 0   
     length 7.6997   
     axis 0 0 20   XYZ
    dof rx
    limits (-10.0 170.0)
  end
  begin
     id 4 
     name lfoot
     direction 0.100767 -0.276854 0.955614   
     length 2.37556   
     axis -90 7.62852e-016 20   XYZ
    dof rx rz
    limits (-45.0 90.0)
           (-70.0 20.0)
  end
  begin
     id 5 
     name ltoes
     direction 1.53592e-011 -4.21894e-011 1   
     length 1.18363   
     axis -90 7.62852e-016 20   XYZ
    dof rx
    limits (-90.0 20.0)
  end
  begin
     id 6 
     name rhipjoint
     direction -0.556459 -0.742938 0.372017   
     length 2.4012  
     axis 0 0 0  XYZ 
  end
  begin
     id 7 
     name rfemur
     direction -0.34202 -0.939693 0   
     length 7.5119   
     axis 0 0 -20   XYZ
    dof rx ry rz
    limits (-160.0 20.0)
           (-70.0 70.0)
           (-70.0 60.0)
  end
  begin
     id 8 
     name rtibia
     direction -0.34202 -0.939693 0   
     length 7.50155   
     axis 0 0 -20   XYZ
    dof rx
    limits (-10.0 170.0)
 end
 begin
     id 9 
     name rfoot
     direction -0.118427 -0.325376 0.938139   
     length 2.32487  
     axis -90 -7.62852e-016 -20   XYZ
    dof rx rz
    limits (-45.0 90.0)
           (-20.0 70.0)
  end
  begin
     id 10 
     name rtoes
     direction -1.53525e-011 -4.21868e-011 1   
     length 1.15233   
     axis -90 -7.62852e-016 -20   XYZ
    dof rx
    limits (-90.0 20.0)
  end
  begin
     id 11 
     name lowerback
     direction 0.0287568 0.999577 -0.00434502   
     length 2.15243   
     axis 0 0 0   XYZ
    dof rx ry rz
    limits (-20.0 45.0)
           (-30.0 30.0)
           (-30.0 30.0)
  end
  begin
     id 12 
     name upperback
     direction 0.0294009 0.99956 0.00404628   
     length 2.15427   
     axis 0 0 0   XYZ
    dof rx ry rz
    limits (-20.0 45.0)
           (-30.0 30.0)
           (-30.0 30.0)
  end
  begin
     id 13 
     name thorax
     direction 0.0151014 0.999868 0.0059419   
     length 2.14898   
     axis 0 0 0   XYZ
    dof rx ry rz
    limits (-20.0 45.0)
           (-30.0 30.0)
           (-30.0 30.0)
  end
  begin
     id 14 
     name lowerneck
     direction -0.0249197 0.989906 0.139515   
     length 1.6861   
     axis 0 0 0   XYZ
    dof rx ry rz
    limits (-20.0 45.0)
           (-30.0 30.0)
           (-30.0 30.0)
  end
  begin
     id 15 
     name upperneck
     direction 0.0438463 0.988795 -0.142693   
     length 1.71276   
     axis 0 0 0   XYZ
    dof rx ry rz
    limits (-20.0 45.0)
           (-30.0 30.0)
           (-30.0 30.0)
  end
  begin
     id 16
     name head
     direction 0.0148499 0.997845 -0.0639186  
     length 1.7209  
     axis 0 0 0   XYZ
    dof rx ry rz
    limits (-20.0 45.0)
           (-30.0 30.0)
           (-30.0 30.0)
  end
  begin
     id 17 
     name lclavicle
     direction 0.940298 0.323464 -0.105876  
     length 3.9048  
     axis 0 0 0   XYZ
    dof ry rz
    limits (-20.0 10.0)
           (0.0 20.0)
  end
  begin
     id 18 
     name lhumerus
     direction 1 -4.48954e-011 -4.9675e-028   
     length 4.6851   
     axis 180 -30 -90   XYZ
    dof rx ry rz
    limits (-60.0 90.0)
           (-90.0 90.0)
           (-90.0 90.0)
  end
  begin
     id 19
     name lradius
     direction 1 -4.48992e-011 -1.03359e-026   
     length 3.39626   
     axis 180 -30 -90   XYZ
    dof rx
    limits (-10.0 170.0)
  end
  begin
     id 20
     name lwrist
     direction 1 -4.48906e-011 -1.67336e-026   
     length 1.69813   
     axis 9.90442e-015 90 90   XYZ
    dof ry
    limits (-180.0 0.0)
 end
  begin
     id 21 
     name lhand
     direction 1 -4.49006e-011 -3.34673e-026   
     length 0.486078   
     axis 2.1355e-014 90 90   XYZ
    dof rx rz
    limits (-90.0 90.0)
           (-45.0 45.0)
  end
  begin
     id 22 
     name lfingers
     direction 1 -4.48992e-011 -6.69345e-026   
     length 0.391889   
     axis 4.27099e-014 90 90   XYZ
    dof rx
    limits (0.0 90.0)
  end
  begin
     id 23
     name lthumb
     direction 0.707107 -6.34926e-011 0.707107   
     length 0.562676   
     axis -90 45 2.85299e-015   XYZ
    dof rx rz
    limits (-45.0 45.0)
           (-45.0 45.0)
  end
  begin
     id 24 
     name rclavicle
     direction -0.882459 0.414895 -0.221648   
     length 3.44646  
     axis 0 0 0   XYZ 
    dof ry rz
    limits (-10.0 20.0)
           (-20.0 0.0)
  end
  begin
     id 25 
     name rhumerus
     direction -1 -4.48962e-011 -2.37984e-027  
     length 5.55576   
     axis 180 30 90   XYZ
    dof rx ry rz
    limits (-90.0 60.0)
           (-90.0 90.0)
           (-90.0 90.0)
  end
  begin
     id 26 
     name rradius
     direction -1 -4.48982e-011 -6.86791e-027   
     length 3.32774   
     axis 180 30 90   XYZ
    dof rx
    limits (-10.0 170.0)
  end
  begin
     id 27 
     name rwrist
     direction -1 -4.48961e-011 -1.67336e-026   
     length 1.66387   
     axis 9.90442e-015 -90 -90   XYZ
    dof ry
    limits (-180.0 0.0)
  end
  begin
     id 28
     name rhand
     direction -1 -4.4897e-011 -3.34673e-026   
     length 0.507628   
     axis 2.1355e-014 -90 -90   XYZ
    dof rx rz
    limits (-90.0 90.0)
           (-45.0 45.0)
  end
  begin
     id 29
     name rfingers
     direction -1 -4.48854e-011 -6.69345e-026   
     length 0.409263   
     axis 4.27099e-014 -90 -90   XYZ
    dof rx
    limits (0.0 90.0)
  end
  begin
     id 30
     name rthumb
     direction -0.707107 -6.34913e-011 0.707107   
     length 0.587622   
     axis -90 -45 -2.85299e-015   XYZ
    dof rx rz
    limits (-45.0 45.0)
           (-45.0 45.0)
  end
:hierarchy
  begin
    root lhipjoint rhipjoint lowerback
    lhipjoint lfemur
    lfemur ltibia
    ltibia lfoot
    lfoot ltoes
    rhipjoint rfemur
    rfemur rtibia
    rtibia rfoot
    rfoot rtoes
    lowerback upperback
    upperback thorax
    thorax lowerneck lclavicle rclavicle
    lowerneck upperneck
    upperneck head
    lclavicle lhumerus
    lhumerus lradius
    lradius lwrist
    lwrist lhand lthumb
    lhand lfingers
    rclavicle rhumerus
    rhumerus rradius
    rradius rwrist
    rwrist rhand rthumb
    rhand rfingers
  end

#!OML:ASF E:\motion texture\Top Level 1\Subject 1\Session 1\male.ASF
:FULLY-SPECIFIED
:DEGREES
64
root 38.5685 17.5933 4.57875 106.942 -82.965 -96.979
lowerback -1.55888 0.802872 4.31492
upperback -1.26688 0.959943 3.14606
thorax -0.408279 0.433312 0.822509
lowerneck -18.3142 -0.858122 -5.03248
upperneck 12.361 -0.929057 6.32002
head 6.82353 -0.123221 2.77679
rclavicle 5.61567e-015 1.72943e-014
rhumerus -31.8934 -18.3928 -73.9077
rradius 22.1175
rwrist 17.2727
rhand -12.9386 -25.8577
rfingers 7.12502
rthumb 13.1523 -55.4229
lclavicle 5.61567e-015 1.72943e-014
lhumerus -35.0378 22.2094 76.2686
lradius 27.8936
lwrist -26.0415
lhand -10.6372 20.5548
lfingers 7.12502
lthumb 15.37 49.9635
rfemur -10.7541 2.14488 30.5395
rtibia 20.307
rfoot -16.2999 -11.8041
rtoes 7.33727
lfemur -27.8657 -0.514562 -6.7225
ltibia 43.316
lfoot -13.811 8.9818
ltoes -12.8578
65
root 38.5261 17.589 4.56309 106.976 -82.8806 -96.9901
lowerback -1.48423 0.882313 4.40198
upperback -1.24963 1.06904 3.13919
thorax -0.428892 0.487009 0.767405
lowerneck -18.3099 -0.832293 -5.01033
upperneck 12.2062 -0.893155 6.31898
head 6.77044 -0.105422 2.7748
rclavicle -9.19379e-016 3.598e-014
rhumerus -31.9317 -18.4992 -73.8643
rradius 21.9722
rwrist 17.404
rhand -12.9179 -25.8802
rfingers 7.12502
rthumb 13.1724 -55.4441
lclavicle -9.19379e-016 3.598e-014
lhumerus -35.1124 22.044 76.3253
lradius 28.0552
lwrist -25.884
lhand -10.6265 20.5811
lfingers 7.12502
lthumb 15.3803 49.9891
rfemur -10.5493 2.14722 30.6972
rtibia 20.1852
rfoot -16.3995 -11.7878
rtoes 7.29258
lfemur -28.7059 -0.340818 -6.69938
ltibia 44.12
lfoot -13.7502 8.93994
ltoes -12.9981
66
root 38.4817 17.5848 4.54782 107.055 -82.8016 -97.0419
lowerback -1.4142 0.963031 4.48551
upperback -1.23458 1.17987 3.12839
thorax -0.448793 0.541594 0.710145
lowerneck -18.303 -0.807606 -4.99038
upperneck 12.0529 -0.858439 6.3177
head 6.71754 -0.088393 2.77295
rclavicle 4.84538e-015 1.11319e-014
rhumerus -31.968 -18.5935 -73.8303
rradius 21.834
rwrist 17.5286
rhand -12.8939 -25.9032
rfingers 7.12502
rthumb 13.1955 -55.4656
lclavicle 4.84538e-015 1.11319e-014
lhumerus -35.1985 21.8918 76.3692
lradius 28.2114
lwrist -25.7319
lhand -10.6128 20.6153
lfingers 7.12502
lthumb 15.3935 50.0222
rfemur -10.3355 2.15511 30.846
rtibia 20.0499
rfoot -16.4927 -11.774
rtoes 7.26866
lfemur -29.529 -0.169837 -6.6866
ltibia 44.8236
lfoot -13.6688 8.89666
ltoes -13.1309
67
root 38.4353 17.5809 4.53297 107.153 -82.7288 -97.1089
lowerback -1.34894 1.04351 4.56537
upperback -1.22129 1.29037 3.11358
thorax -0.467472 0.596057 0.650718
lowerneck -18.2948 -0.783537 -4.97393
upperneck 11.9013 -0.82406 6.31768
head 6.6651 -0.0716282 2.77205
rclavicle -2.18663e-015 -5.1684e-015
rhumerus -32.0005 -18.6712 -73.809
rradius 21.7033
rwrist 17.6421
rhand -12.8735 -25.934
rfingers 7.12502
rthumb 13.2151 -55.4951
lclavicle -2.18663e-015 -5.1684e-015
lhumerus -35.296 21.7556 76.3989
lradius 28.3618
lwrist -25.587
lhand -10.5962 20.6535
lfingers 7.12502
lthumb 15.4095 50.0592
rfemur -10.1112 2.16628 30.9857
rtibia 19.9005
rfoot -16.5799 -11.7643
rtoes 7.26393
lfemur -30.3322 -0.00561491 -6.68402
ltibia 45.421
lfoot -13.5667 8.85218
ltoes -13.2553
68
root 38.387 17.577 4.51854 107.296 -82.6612 -97.2155
lowerback -1.28924 1.12523 4.64129
upperback -1.2104 1.40245 3.09488
thorax -0.48509 0.651339 0.589475
lowerneck -18.2864 -0.75925 -4.95876
upperneck 11.7523 -0.789106 6.31684
head 6.61346 -0.0547421 2.77118
rclavicle 1.66482e-015 4.67144e-014
rhumerus -32.0299 -18.7342 -73.7985
rradius 21.5802
rwrist 17.7464
rhand -12.8502 -25.9603
rfingers 7.12502
rthumb 13.2376 -55.52
lclavicle 1.66482e-015 4.67144e-014
lhumerus -35.4049 21.6349 76.4145
lradius 28.5064
lwrist -25.4486
lhand -10.5764 20.6944
lfingers 7.12502
lthumb 15.4286 50.0986
rfemur -9.87924 2.18386 31.1169
rtibia 19.7394
rfoot -16.6613 -11.7584
rtoes 7.27204
lfemur -31.1128 0.154942 -6.69011
ltibia 45.9054
lfoot -13.4439 8.80645
ltoes -13.3635
69
root 38.3366 17.5733 4.50455 107.471 -82.5994 -97.3506
lowerback -1.23526 1.20719 4.71331
upperback -1.20152 1.51476 3.07202
thorax -0.501192 0.706783 0.526095
lowerneck -18.2755 -0.735609 -4.94585
upperneck 11.6046 -0.754649 6.31593
head 6.56193 -0.0382638 2.77058
rclavicle 1.47598e-014 5.1684e-015
rhumerus -32.0559 -18.7776 -73.8023
rradius 21.4675
rwrist 17.8378
rhand -12.8288 -25.9812
rfingers 7.12502
rthumb 13.2582 -55.5395
lclavicle 1.47598e-014 5.1684e-015
lhumerus -35.525 21.5304 76.4156
lradius 28.6452
lwrist -25.3158
lhand -10.5549 20.7419
lfingers 7.12502
lthumb 15.4492 50.1445
rfemur -9.63857 2.2054 31.2389
rtibia 19.567
rfoot -16.7386 -11.755
rtoes 7.29767
lfemur -31.8673 0.308867 -6.7045
ltibia 46.272
lfoot -13.2999 8.76025
ltoes -13.4573
70
root 38.2841 17.5696 4.49097 107.679 -82.5425 -97.5144
lowerback -1.18672 1.28962 4.78139
upperback -1.19535 1.62759 3.04554
thorax -0.516665 0.76251 0.461195
lowerneck -18.2631 -0.712455 -4.93554
upperneck 11.4592 -0.720414 6.31504
head 6.51096 -0.0220451 2.7704
rclavicle -4.34841e-015 -1.23246e-014
rhumerus -32.0785 -18.8015 -73.82
rradius 21.3651
rwrist 17.9154
rhand -12.8043 -26.0021
rfingers 7.12502
rthumb 13.2818 -55.5589
lclavicle -4.34841e-015 -1.23246e-014
lhumerus -35.6571 21.4425 76.4019
lradius 28.7788
lwrist -25.1886
lhand -10.531 20.794
lfingers 7.12502
lthumb 15.4722 50.1948
rfemur -9.3903 2.23169 31.3528
rtibia 19.3831
rfoot -16.8103 -11.7534
rtoes 7.33951
lfemur -32.5936 0.45709 -6.72489
ltibia 46.5167
lfoot -13.1343 8.71205
ltoes -13.5325
71
root 38.2295 17.5659 4.47788 107.926 -82.4917 -97.7122
lowerback -1.14388 1.37233 4.84457
upperback -1.19161 1.74068 3.01506
thorax -0.531076 0.818409 0.394932
lowerneck -18.2489 -0.689109 -4.92769
upperneck 11.3158 -0.685629 6.31497
head 6.46037 -0.00563801 2.77095
rclavicle 1.70209e-014 3.26007e-014
rhumerus -32.0983 -18.8015 -73.8534
rradius 21.2761
rwrist 17.9777
rhand -12.7814 -26.0209
rfingers 7.12502
rthumb 13.3039 -55.5763
lclavicle 1.70209e-014 3.26007e-014
lhumerus -35.8011 21.3716 76.3734
lradius 28.9078
lwrist -25.0658
lhand -10.5042 20.8518
lfingers 7.12502
lthumb 15.4981 50.2507
rfemur -9.13402 2.26153 31.4566
rtibia 19.1889
rfoot -16.879 -11.7516
rtoes 7.40089
lfemur -33.2887 0.598002 -6.7526
ltibia 46.636
lfoot -12.9439 8.66418
ltoes -13.6067
72
root 38.1728 17.5621 4.46522 108.204 -82.4459 -97.9356
lowerback -1.10669 1.45482 4.90385
upperback -1.19005 1.85334 2.98075
thorax -0.544204 0.87413 0.326941
lowerneck -18.2373 -0.665329 -4.9206
upperneck 11.1762 -0.649928 6.31333
head 6.41143 0.0110826 2.77127
rclavicle -1.49089e-015 -4.77083e-015
rhumerus -32.1138 -18.7774 -73.904
rradius 21.2024
rwrist 18.0232
rhand -12.7545 -26.0458
rfingers 7.12502
rthumb 13.3299 -55.5995
lclavicle -1.49089e-015 -4.77083e-015
lhumerus -35.9555 21.3172 76.3304
lradius 29.0331
lwrist -24.9461
lhand -10.4756 20.9169
lfingers 7.12502
lthumb 15.5256 50.3136
rfemur -8.87119 2.29561 31.5519
rtibia 18.9859
rfoot -16.9445 -11.7511
rtoes 7.47829
lfemur -33.9518 0.730909 -6.78493
ltibia 46.6293
lfoot -12.7332 8.61554
ltoes -13.6694
73
root 38.114 17.5582 4.453 108.514 -82.404 -98.1859
lowerback -1.07623 1.53757 4.95917
upperback -1.19125 1.96609 2.94325
thorax -0.556047 0.929922 0.257963
lowerneck -18.2236 -0.640415 -4.91437
upperneck 11.0376 -0.612472 6.31049
head 6.36239 0.0284748 2.77149
rclavicle -1.57288e-014 -2.24627e-014
rhumerus -32.1245 -18.7292 -73.9712
rradius 21.1411
rwrist 18.0514
rhand -12.732 -26.0637
rfingers 7.12502
rthumb 13.3516 -55.616
lclavicle -1.57288e-014 -2.24627e-014
lhumerus -36.1211 21.2795 76.2732
lradius 29.1553
lwrist -24.8294
lhand -10.4439 20.9839
lfingers 7.12502
lthumb 15.5561 50.3783
rfemur -8.60288 2.33374 31.6401
rtibia 18.7745
rfoot -17.0066 -11.7509
rtoes 7.56784
lfemur -34.5822 0.856566 -6.81971
ltibia 46.4953
lfoot -12.5048 8.56674
ltoes -13.7175
74
root 38.0531 17.5542 4.44126 108.87 -82.3658 -98.478
lowerback -1.05035 1.62105 5.01007
upperback -1.19486 2.07972 2.90256
thorax -0.567462 0.986176 0.188228
lowerneck -18.2106 -0.615077 -4.90937
upperneck 10.9029 -0.574247 6.30716
head 6.31475 0.0461645 2.77188
rclavicle 3.60297e-015 1.19271e-014
rhumerus -32.132 -18.6523 -74.0565
rradius 21.097
rwrist 18.0586
rhand -12.707 -26.0877
rfingers 7.12502
rthumb 13.3756 -55.6383
lclavicle 3.60297e-015 1.19271e-014
lhumerus -36.2976 21.256 76.2034
lradius 29.2764
lwrist -24.7121
lhand -10.411 21.0635
lfingers 7.12502
lthumb 15.5878 50.4554
rfemur -8.32774 2.37593 31.7203
rtibia 18.556
rfoot -17.0657 -11.7499
rtoes 7.67018
lfemur -35.1761 0.97436 -6.85675
ltibia 46.2351
lfoot -12.2618 8.51946
ltoes -13.7528
75
root 37.9899 17.5499 4.42998 109.258 -82.3309 -98.7971
lowerback -1.03049 1.70448 5.0571
upperback -1.20021 2.193 2.85894
thorax -0.576956 1.0423 0.117758
lowerneck -18.1982 -0.588091 -4.90638
upperneck 10.7699 -0.533608 6.30515
head 6.26763 0.0650539 2.77329
rclavicle -8.94531e-016 -4.41302e-014
rhumerus -32.1338 -18.5463 -74.1611
rradius 21.0701
rwrist 18.0444
rhand -12.6845 -26.1101
rfingers 7.12502
rthumb 13.3974 -55.6594
lclavicle -8.94531e-016 -4.41302e-014
lhumerus -36.4833 21.2479 76.1212
lradius 29.3969
lwrist -24.5942
lhand -10.3763 21.1469
lfingers 7.12502
lthumb 15.6213 50.5362
rfemur -8.04738 2.42056 31.7935
rtibia 18.3327
rfoot -17.1246 -11.748
rtoes 7.78289
lfemur -35.734 1.08318 -6.89431
ltibia 45.8498
lfoot -12.0053 8.47323
ltoes -13.7769
76
root 37.9247 17.5454 4.41914 109.692 -82.2975 -99.1568
lowerback -1.01654 1.78869 5.10057
upperback -1.20803 2.30707 2.81294
thorax -0.58535 1.09884 0.0469739
lowerneck -18.1871 -0.560502 -4.90207
upperneck 10.6395 -0.492088 6.29982
head 6.22155 0.0841774 2.77351
rclavicle 3.77691e-015 -1.61016e-014
rhumerus -32.1304 -18.4093 -74.2855
rradius 21.0616
rwrist 18.0074
rhand -12.6635 -26.1373
rfingers 7.12502
rthumb 13.4176 -55.6852
lclavicle 3.77691e-015 -1.61016e-014
lhumerus -36.6779 21.2551 76.0268
lradius 29.5175
lwrist -24.475
lhand -10.3396 21.2269
lfingers 7.12502
lthumb 15.6566 50.6134
rfemur -7.76428 2.46805 31.8614
rtibia 18.106
rfoot -17.1824 -11.744
rtoes 7.90143
lfemur -36.2566 1.18597 -6.92995
ltibia 45.3432
lfoot -11.7371 8.42795
ltoes -13.7831
77
root 37.8573 17.5404 4.40874 110.155 -82.2651 -99.5414
lowerback -1.0081 1.87267 5.14146
upperback -1.21808 2.42056 2.76484
thorax -0.592622 1.1551 -0.0243966
lowerneck -18.1782 -0.531804 -4.89905
upperneck 10.5128 -0.44888 6.29454
head 6.17693 0.104115 2.77417
rclavicle -5.31749e-015 -1.59028e-014
rhumerus -32.1219 -18.2387 -74.4309
rradius 21.0734
rwrist 17.9456
rhand -12.6399 -26.172
rfingers 7.12502
rthumb 13.4403 -55.7184
lclavicle -5.31749e-015 -1.59028e-014
lhumerus -36.8818 21.274 75.9221
lradius 29.6417
lwrist -24.3505
lhand -10.3032 21.3176
lfingers 7.12502
lthumb 15.6916 50.7014
rfemur -7.47705 2.51793 31.9249
rtibia 17.8764
rfoot -17.2391 -11.7389
rtoes 8.02284
lfemur -36.743 1.27943 -6.96193
ltibia 44.7195
lfoot -11.4567 8.3846
ltoes -13.7771
78
root 37.7878 17.5351 4.39866 110.615 -82.2342 -99.9188
lowerback -1.0047 1.95522 5.17799
upperback -1.22969 2.5319 2.71576
thorax -0.598558 1.21031 -0.0942077
lowerneck -18.1702 -0.501901 -4.89602
upperneck 10.3883 -0.403944 6.28775
head 6.13312 0.124792 2.77454
rclavicle -8.79622e-015 -3.4191e-014
rhumerus -32.1078 -18.0314 -74.5984
rradius 21.1065
rwrist 17.86
rhand -12.6231 -26.2054
rfingers 7.12502
rthumb 13.4565 -55.7507
lclavicle -8.79622e-015 -3.4191e-014
lhumerus -37.0932 21.304 75.8091
lradius 29.7697
lwrist -24.2211
lhand -10.2674 21.4138
lfingers 7.12502
lthumb 15.7261 50.7948
rfemur -7.18373 2.56896 31.9854
rtibia 17.6432
rfoot -17.2948 -11.7358
rtoes 8.14716
lfemur -37.1926 1.36163 -6.98875
ltibia 43.984
lfoot -11.1648 8.34066
ltoes -13.7695
